<mxfile host="65bd71144e">
    <diagram id="PT0VoQ2pAafepIRgsOAo" name="Page-1">
        <mxGraphModel dx="1189" dy="804" grid="1" gridSize="10" guides="1" tooltips="1" connect="1" arrows="1" fold="1" page="1" pageScale="1" pageWidth="850" pageHeight="1100" math="0" shadow="0">
            <root>
                <mxCell id="0"/>
                <mxCell id="1" parent="0"/>
                <mxCell id="14" style="edgeStyle=none;html=1;entryX=0.5;entryY=1;entryDx=0;entryDy=0;" parent="1" source="2" target="6" edge="1">
                    <mxGeometry relative="1" as="geometry"/>
                </mxCell>
                <mxCell id="2" value="&amp;lt;C&amp;gt; TalentRecruiter&amp;nbsp;&lt;br&gt;-----------------------------&amp;nbsp;&lt;div style=&quot;text-align: left;&quot;&gt;-----------------------------&lt;/div&gt;&lt;div style=&quot;text-align: left;&quot;&gt;+updateListing(Listing): void&lt;/div&gt;&lt;div style=&quot;text-align: left;&quot;&gt;+addListing(ArrayList&amp;lt;Criteria&amp;gt;): void&lt;/div&gt;" style="whiteSpace=wrap;html=1;" parent="1" vertex="1">
                    <mxGeometry x="455" y="770" width="230" height="180" as="geometry"/>
                </mxCell>
                <mxCell id="19" style="edgeStyle=none;html=1;entryX=0.5;entryY=1;entryDx=0;entryDy=0;" parent="1" source="3" target="10" edge="1">
                    <mxGeometry relative="1" as="geometry"/>
                </mxCell>
                <mxCell id="23" style="edgeStyle=none;html=1;entryX=0.5;entryY=1;entryDx=0;entryDy=0;" parent="1" source="3" target="12" edge="1">
                    <mxGeometry relative="1" as="geometry"/>
                </mxCell>
                <mxCell id="25" style="edgeStyle=none;html=1;entryX=0;entryY=0.5;entryDx=0;entryDy=0;" parent="1" source="3" target="4" edge="1">
                    <mxGeometry relative="1" as="geometry"/>
                </mxCell>
                <mxCell id="3" value="&amp;lt;C&amp;gt; Auditionee&lt;br&gt;-----------------------------&amp;nbsp;&lt;div style=&quot;text-align: left;&quot;&gt;-gender: Gender&lt;/div&gt;&lt;div style=&quot;text-align: left;&quot;&gt;-yearsOfExperience: int&lt;/div&gt;&lt;div style=&quot;text-align: left;&quot;&gt;-----------------------------&amp;nbsp;&lt;/div&gt;&lt;div style=&quot;text-align: left;&quot;&gt;+getGender(): Gender&lt;/div&gt;&lt;div style=&quot;text-align: left;&quot;&gt;+getYearsOfExperience(): int&lt;/div&gt;&lt;div style=&quot;text-align: left;&quot;&gt;+delete(): void&lt;/div&gt;&lt;span style=&quot;&quot;&gt;&lt;div style=&quot;text-align: left;&quot;&gt;&lt;span style=&quot;background-color: initial;&quot;&gt;+offer(Listing): void&lt;/span&gt;&lt;/div&gt;&lt;/span&gt;" style="whiteSpace=wrap;html=1;" parent="1" vertex="1">
                    <mxGeometry y="690" width="160" height="160" as="geometry"/>
                </mxCell>
                <mxCell id="26" style="edgeStyle=none;html=1;entryX=0.25;entryY=1;entryDx=0;entryDy=0;" parent="1" source="4" target="6" edge="1">
                    <mxGeometry relative="1" as="geometry"/>
                </mxCell>
                <mxCell id="4" value="&amp;lt;C&amp;gt; Application&lt;br&gt;-----------------------------&lt;br&gt;&lt;div style=&quot;text-align: left;&quot;&gt;-auditionee: Auditionee&lt;/div&gt;&lt;div style=&quot;text-align: left;&quot;&gt;&lt;span style=&quot;background-color: initial;&quot;&gt;-listing: Listing&lt;/span&gt;&lt;br&gt;&lt;/div&gt;&lt;div style=&quot;text-align: left;&quot;&gt;-score: int&lt;/div&gt;&lt;div style=&quot;text-align: left;&quot;&gt;&lt;span style=&quot;text-align: center;&quot;&gt;-----------------------------&lt;/span&gt;&lt;br style=&quot;text-align: center;&quot;&gt;&lt;/div&gt;&lt;div style=&quot;text-align: left;&quot;&gt;+getAuditionee(): Auditionee&lt;/div&gt;&lt;div style=&quot;text-align: left;&quot;&gt;+getRole(): Listing&lt;/div&gt;&lt;div style=&quot;text-align: left;&quot;&gt;+getScore(): int&lt;/div&gt;" style="whiteSpace=wrap;html=1;" parent="1" vertex="1">
                    <mxGeometry x="220" y="650" width="160" height="150" as="geometry"/>
                </mxCell>
                <mxCell id="13" style="edgeStyle=none;html=1;entryX=0.5;entryY=1;entryDx=0;entryDy=0;" parent="1" source="5" target="3" edge="1">
                    <mxGeometry relative="1" as="geometry"/>
                </mxCell>
                <mxCell id="5" value="&amp;lt;E&amp;gt; Gender&lt;br&gt;-----------------------------&lt;br&gt;&lt;div style=&quot;text-align: left;&quot;&gt;MALE&amp;nbsp;&lt;br&gt;FEMALE&amp;nbsp;&lt;br&gt;NON_BINARY&amp;nbsp;&lt;br&gt;TRANSGENDER&amp;nbsp;&lt;br&gt;GENDER_FLUID&amp;nbsp;&lt;br&gt;AGENDER&amp;nbsp;&lt;br&gt;BIGENDER&amp;nbsp;&lt;br&gt;TWO_SPIRIT&amp;nbsp;&lt;br&gt;OTHER&amp;nbsp;&lt;br&gt;&lt;/div&gt;&lt;div style=&quot;text-align: left;&quot;&gt;&lt;br&gt;&lt;/div&gt;" style="whiteSpace=wrap;html=1;" parent="1" vertex="1">
                    <mxGeometry x="20" y="910" width="120" height="190" as="geometry"/>
                </mxCell>
                <mxCell id="20" style="edgeStyle=none;html=1;entryX=0.5;entryY=1;entryDx=0;entryDy=0;" parent="1" source="6" target="9" edge="1">
                    <mxGeometry relative="1" as="geometry"/>
                </mxCell>
                <mxCell id="24" style="edgeStyle=none;html=1;entryX=1.006;entryY=0.648;entryDx=0;entryDy=0;entryPerimeter=0;" parent="1" source="6" target="12" edge="1">
                    <mxGeometry relative="1" as="geometry"/>
                </mxCell>
                <mxCell id="6" value="&amp;lt;C&amp;gt; Listing&lt;br&gt;-----------------------------&lt;br&gt;&lt;div style=&quot;text-align: left;&quot;&gt;-criteria: ArrayList&amp;lt;Criteria&amp;gt;&lt;/div&gt;&lt;div style=&quot;text-align: left;&quot;&gt;-auditionees: ArrayList&amp;lt;Auditionee&amp;gt;&lt;/div&gt;&lt;div style=&quot;text-align: left;&quot;&gt;&lt;div&gt;-recruiter: TalentRecruiter&lt;/div&gt;&lt;/div&gt;&lt;div style=&quot;text-align: left;&quot;&gt;-applicantAverageScore: int&lt;/div&gt;&lt;div style=&quot;text-align: left;&quot;&gt;&lt;span style=&quot;text-align: center;&quot;&gt;-----------------------------&lt;/span&gt;&lt;br style=&quot;text-align: center;&quot;&gt;&lt;/div&gt;&lt;div style=&quot;text-align: left;&quot;&gt;&lt;span style=&quot;text-align: center;&quot;&gt;+getCriteria(): ArrayList&amp;lt;Criteria&amp;gt;&lt;/span&gt;&lt;/div&gt;&lt;div style=&quot;text-align: left;&quot;&gt;&lt;span style=&quot;text-align: center;&quot;&gt;+getAuditionees(): ArrayList&amp;lt;Auditionee&amp;gt;&lt;/span&gt;&lt;/div&gt;&lt;div style=&quot;text-align: left;&quot;&gt;&lt;span style=&quot;text-align: center;&quot;&gt;+getApplicantAverageScore(): int&lt;/span&gt;&lt;/div&gt;&lt;div style=&quot;text-align: left;&quot;&gt;&lt;span style=&quot;text-align: center;&quot;&gt;+selectBestAuditionee(): void&lt;/span&gt;&lt;/div&gt;&lt;div style=&quot;text-align: left;&quot;&gt;&lt;span style=&quot;text-align: center;&quot;&gt;+delete(): void&lt;/span&gt;&lt;/div&gt;&lt;div style=&quot;text-align: left;&quot;&gt;&lt;span style=&quot;text-align: center;&quot;&gt;+decline(Auditionee): void&lt;/span&gt;&lt;/div&gt;&lt;div style=&quot;text-align: left;&quot;&gt;&lt;span style=&quot;text-align: center;&quot;&gt;+getRecruiter(): Recruiter&lt;/span&gt;&lt;/div&gt;" style="whiteSpace=wrap;html=1;" parent="1" vertex="1">
                    <mxGeometry x="440" y="435" width="260" height="230" as="geometry"/>
                </mxCell>
                <mxCell id="16" style="edgeStyle=none;html=1;entryX=1;entryY=1;entryDx=0;entryDy=0;exitX=0.5;exitY=0;exitDx=0;exitDy=0;" parent="1" source="7" target="6" edge="1">
                    <mxGeometry relative="1" as="geometry">
                        <mxPoint x="570" y="670" as="targetPoint"/>
                    </mxGeometry>
                </mxCell>
                <mxCell id="7" value="&amp;lt;C&amp;gt; Criteria&lt;br&gt;-----------------------------&lt;br&gt;&lt;div style=&quot;text-align: left;&quot;&gt;-weight: int&lt;/div&gt;&lt;div style=&quot;text-align: left;&quot;&gt;-range: int&lt;/div&gt;&lt;div style=&quot;text-align: left;&quot;&gt;-----------------------------&lt;/div&gt;&lt;div style=&quot;text-align: left;&quot;&gt;+getWeight(): int&lt;/div&gt;&lt;div style=&quot;text-align: left;&quot;&gt;+getRange(): int&lt;/div&gt;&lt;div style=&quot;text-align: left;&quot;&gt;&lt;br&gt;&lt;/div&gt;" style="whiteSpace=wrap;html=1;" parent="1" vertex="1">
                    <mxGeometry x="730" y="700" width="120" height="150" as="geometry"/>
                </mxCell>
                <mxCell id="17" style="edgeStyle=none;html=1;entryX=0.5;entryY=1;entryDx=0;entryDy=0;" parent="1" source="8" target="2" edge="1">
                    <mxGeometry relative="1" as="geometry">
                        <Array as="points">
                            <mxPoint x="570" y="1035"/>
                        </Array>
                    </mxGeometry>
                </mxCell>
                <mxCell id="18" style="edgeStyle=none;html=1;entryX=1;entryY=1;entryDx=0;entryDy=0;exitX=0;exitY=0.75;exitDx=0;exitDy=0;" parent="1" source="8" target="3" edge="1">
                    <mxGeometry relative="1" as="geometry">
                        <Array as="points">
                            <mxPoint x="170" y="1068"/>
                        </Array>
                    </mxGeometry>
                </mxCell>
                <mxCell id="8" value="&amp;lt;A&amp;gt; User&lt;br&gt;-----------------------------&lt;br&gt;&lt;div style=&quot;text-align: left;&quot;&gt;-name: String&lt;/div&gt;&lt;div style=&quot;text-align: left;&quot;&gt;-id: int&lt;/div&gt;&lt;div style=&quot;text-align: left;&quot;&gt;-ID: int&lt;/div&gt;&lt;div style=&quot;text-align: left;&quot;&gt;-----------------------------&lt;/div&gt;&lt;div style=&quot;text-align: left;&quot;&gt;-getName(): String&lt;/div&gt;&lt;div style=&quot;text-align: left;&quot;&gt;-getID(): int&lt;/div&gt;" style="whiteSpace=wrap;html=1;" parent="1" vertex="1">
                    <mxGeometry x="260" y="970" width="120" height="130" as="geometry"/>
                </mxCell>
                <mxCell id="21" style="edgeStyle=none;html=1;entryX=0.75;entryY=1;entryDx=0;entryDy=0;" parent="1" source="9" target="11" edge="1">
                    <mxGeometry relative="1" as="geometry"/>
                </mxCell>
                <mxCell id="9" value="&amp;lt;C&amp;gt; ListingDisplay&lt;br&gt;-----------------------------&lt;br&gt;&lt;div style=&quot;text-align: left;&quot;&gt;-----------------------------&lt;br&gt;&lt;div&gt;&lt;br&gt;&lt;/div&gt;&lt;/div&gt;" style="whiteSpace=wrap;html=1;" parent="1" vertex="1">
                    <mxGeometry x="510" y="300" width="120" height="60" as="geometry"/>
                </mxCell>
                <mxCell id="22" style="edgeStyle=none;html=1;entryX=0.25;entryY=1;entryDx=0;entryDy=0;" parent="1" source="10" target="11" edge="1">
                    <mxGeometry relative="1" as="geometry"/>
                </mxCell>
                <mxCell id="10" value="&amp;lt;C&amp;gt; AuditioneeDisplay&lt;br&gt;-----------------------------&lt;br&gt;&lt;div style=&quot;text-align: left;&quot;&gt;-----------------------------&amp;nbsp;&lt;div&gt;&lt;br&gt;&lt;/div&gt;&lt;div&gt;&lt;br&gt;&lt;/div&gt;&lt;/div&gt;" style="whiteSpace=wrap;html=1;" parent="1" vertex="1">
                    <mxGeometry y="340" width="160" height="100" as="geometry"/>
                </mxCell>
                <mxCell id="11" value="&amp;lt;A&amp;gt; Display&amp;lt;T &amp;lt;Displayable&amp;gt;&amp;gt;&lt;br&gt;-----------------------------&lt;br&gt;&lt;div style=&quot;text-align: left;&quot;&gt;-items: ArrayList&amp;lt;T&amp;gt;&lt;/div&gt;-----------------------------&lt;br&gt;&lt;div style=&quot;text-align: left;&quot;&gt;+displayItems(): void&lt;/div&gt;" style="whiteSpace=wrap;html=1;" parent="1" vertex="1">
                    <mxGeometry x="360" y="50" width="190" height="160" as="geometry"/>
                </mxCell>
                <mxCell id="12" value="&amp;lt;I&amp;gt; Displayable&lt;br&gt;-----------------------------&lt;br&gt;&lt;div style=&quot;text-align: left;&quot;&gt;-----------------------------&lt;br&gt;&lt;div&gt;+getDisplay(): Display&lt;/div&gt;&lt;div&gt;+buildDisplay(): void&lt;/div&gt;&lt;/div&gt;" style="whiteSpace=wrap;html=1;" parent="1" vertex="1">
                    <mxGeometry x="140" y="470" width="120" height="120" as="geometry"/>
                </mxCell>
            </root>
        </mxGraphModel>
    </diagram>
</mxfile>